<svg xmlns="http://www.w3.org/2000/svg" viewBox="0 0 186.96 186.96"><defs><style>.cls-1{fill:#7ffb00;}.cls-2{fill:#fff;}.cls-3{fill:none;stroke:#262626;stroke-miterlimit:10;stroke-width:7.48px;}</style></defs><title>4Asset 18</title><g id="Layer_2" data-name="Layer 2"><g id="Layer_1-2" data-name="Layer 1"><path class="cls-1" d="M156.92,30l-3.19,3.19L123.44,63.52a42.18,42.18,0,0,0-30-12.42V3.74A89.38,89.38,0,0,1,156.92,30Z"/><path class="cls-2" d="M153.73,33.23,156.92,30a89.34,89.34,0,0,1,26.3,63.44H135.86a42.18,42.18,0,0,0-12.42-30Z"/><path class="cls-1" d="M33.23,153.73l30.29-30.29a42.18,42.18,0,0,0,30,12.42v47.36a89.44,89.44,0,0,1-66.41-29.41Z"/><path class="cls-2" d="M63.52,123.44,33.23,153.73l-6.16.08A89.27,89.27,0,0,1,3.74,93.48H51.1A42.18,42.18,0,0,0,63.52,123.44Z"/><path class="cls-1" d="M182.87,93.48h.35a89.34,89.34,0,0,1-26.3,63.44l-33.48-33.48a42.18,42.18,0,0,0,12.42-30Z"/><path class="cls-1" d="M3.74,93.48A89.38,89.38,0,0,1,30,30L63.52,63.52a42.18,42.18,0,0,0-12.42,30H3.74Z"/><path class="cls-2" d="M123.44,123.44l33.48,33.48a89.34,89.34,0,0,1-63.44,26.3V135.86A42.18,42.18,0,0,0,123.44,123.44Z"/><path class="cls-2" d="M93.48,3.74V51.1a42.18,42.18,0,0,0-30,12.42L30,30A89.38,89.38,0,0,1,93.48,3.74Z"/><path class="cls-3" d="M93.48,3.74A89.79,89.79,0,1,0,156.92,30,89.38,89.38,0,0,0,93.48,3.74Z"/><path class="cls-3" d="M93.48,135.86a42.4,42.4,0,1,1,30-12.42A42.18,42.18,0,0,1,93.48,135.86Z"/></g></g></svg>