<svg width="23" height="23" viewBox="0 0 23 23" fill="none" xmlns="http://www.w3.org/2000/svg">
<g clip-path="url(#clip0)">
<path d="M11.6471 5.76575C8.51994 5.76575 5.98828 8.30016 5.98828 11.4245C5.98828 14.5517 8.5227 17.0833 11.6471 17.0833C14.7742 17.0833 17.3059 14.5489 17.3059 11.4245C17.3059 8.29741 14.7714 5.76575 11.6471 5.76575ZM11.6471 15.0975C9.61715 15.0975 7.9741 13.4535 7.9741 11.4245C7.9741 9.39553 9.61807 7.75156 11.6471 7.75156C13.6761 7.75156 15.32 9.39553 15.32 11.4245C15.321 13.4535 13.677 15.0975 11.6471 15.0975Z" fill="#5D5D5D"/>
<path d="M16.19 0.471619C14.161 0.376969 9.13536 0.381564 7.10452 0.471619C5.31995 0.555242 3.74582 0.986221 2.47677 2.25527C0.355873 4.37616 0.626959 7.23405 0.626959 11.4253C0.626959 15.7149 0.388036 18.5066 2.47677 20.5953C4.60594 22.7236 7.50517 22.4451 11.6468 22.4451C15.8959 22.4451 17.3626 22.4479 18.865 21.8662C20.9078 21.0732 22.4498 19.2473 22.6005 15.9676C22.6961 13.9377 22.6905 8.91294 22.6005 6.88209C22.4185 3.01063 20.3408 0.662757 16.19 0.471619ZM19.4017 19.1921C18.0113 20.5825 16.0825 20.4584 11.6202 20.4584C7.02549 20.4584 5.18303 20.5264 3.83863 19.1783C2.29023 17.6373 2.5705 15.1626 2.5705 11.4106C2.5705 6.33349 2.04947 2.67706 7.14495 2.41608C8.31567 2.37473 8.66027 2.36094 11.6073 2.36094L11.6486 2.38851C16.5456 2.38851 20.3877 1.87575 20.6183 6.97031C20.6707 8.13276 20.6827 8.48196 20.6827 11.4244C20.6818 15.9657 20.7681 17.8192 19.4017 19.1921Z" fill="#5D5D5D"/>
<path d="M17.5301 6.86478C18.2604 6.86478 18.8525 6.27275 18.8525 5.54244C18.8525 4.81213 18.2604 4.22009 17.5301 4.22009C16.7998 4.22009 16.2078 4.81213 16.2078 5.54244C16.2078 6.27275 16.7998 6.86478 17.5301 6.86478Z" fill="#5D5D5D"/>
</g>
<defs>
<clipPath id="clip0">
<rect x="0.616211" y="0.401001" width="22.0544" height="22.0544" fill="white"/>
</clipPath>
</defs>
</svg>
