<svg xmlns="http://www.w3.org/2000/svg" viewBox="0 0 318.51 747.86"><defs><style>.cls-1{fill:#fff;}.cls-2{fill:#eaecee;}.cls-3{fill:#262626;}.cls-4{fill:#d9ffa8;}.cls-5{fill:#7ffb00;}.cls-6{fill:#ffc6b3;}</style></defs><title>4Asset 17</title><g id="Layer_2" data-name="Layer 2"><g id="Layer_1-2" data-name="Layer 1"><path class="cls-1" d="M162,726.46H93.27C52.18,450.7,92,203.8,162,3.56"/><path class="cls-1" d="M162,726.46h68.68C271.78,450.7,231.93,203.8,162,3.56"/><path class="cls-2" d="M182.73,67.37S92.3,238.76,119.31,723.61l111.77,3.74S284,389.55,182.73,67.37Z"/><path class="cls-3" d="M162,730.19h68.68c1.48,0,3.37-1.15,3.61-2.74a1519.58,1519.58,0,0,0,14.24-310.23A1518,1518,0,0,0,206.88,141.4Q189.53,71.07,165.61,2.57c-1.57-4.52-8.8-2.58-7.21,2A1536,1536,0,0,1,223.33,258.2a1497.84,1497.84,0,0,1,19.53,290.52,1516.25,1516.25,0,0,1-15.77,176.74l3.6-2.74H162c-4.81,0-4.82,7.47,0,7.47Z"/><path class="cls-3" d="M162,722.72H93.27l3.6,2.74a1501.36,1501.36,0,0,1,27.8-583.61Q141.91,72.3,165.56,4.55c1.58-4.55-5.64-6.51-7.21-2A1534,1534,0,0,0,92.88,259.5,1507.32,1507.32,0,0,0,73.67,550.57a1536.61,1536.61,0,0,0,16,176.88c.24,1.59,2.11,2.74,3.61,2.74H162c4.81,0,4.82-7.47,0-7.47Z"/><path class="cls-1" d="M162.08,529.47c254-435.81,146.85-467.36,0-350.49Q270.94,236.33,162.08,529.47Z"/><path class="cls-2" d="M314,185.15c0-25.6-9.82-35.45-23.89-36.39,16.75,43.22,2.35,118.7,2.35,118.7L269.52,324c7.62-66.67,14.45-132.57-8.68-168.61-33.52,14.37-70.5,46.68-70.5,46.68,65.18,64.08-10.93,297.29-10.93,297.29S314.07,276.15,314,185.15Z"/><path class="cls-4" d="M290.08,148.76c-5.35-13.82-13.88-24.35-27.09-28.06l-29.43,12a56.77,56.77,0,0,1,27.28,22.67C271.34,150.92,281.5,148.18,290.08,148.76Z"/><path class="cls-5" d="M290.08,148.75C297.53,168,298.82,193.52,298,216h0l-21.26,9.72c-.44-28.27-4.6-52.82-15.83-70.29C271.34,150.91,281.51,148.17,290.08,148.75Z"/><path class="cls-5" d="M297.94,216h0a384.56,384.56,0,0,1-5.54,51.45L269.52,324c3.92-34.3,7.64-68.38,7.16-98.32Z"/><path class="cls-3" d="M165,531.2C205.36,462,244.15,391.37,276,317.76c18-41.54,35.6-85.38,41.19-130.64,2.46-20,3.34-47.23-13.84-61.52-15.28-12.7-37.48-8.65-54.68-2.7-28.47,9.86-54.34,27.17-78.18,45.26q-5.46,4.14-10.81,8.4c-1.71,1.36-1.1,4.43.69,5.38,30.24,16.08,45.27,46.61,50.36,79.43,7.77,50-2.6,102.57-14.91,151-10,39.43-22.89,78.11-37,116.24-1.54,4.14,5.08,5.93,6.6,1.82,23.31-62.87,44.29-128,52.06-194.89,4.68-40.26,5.23-85.83-15.38-122.19A95.4,95.4,0,0,0,163.81,176l.69,5.37c23.78-18.89,49.45-37.07,77.66-48.73,9.7-4,20.46-7.47,30.57-8.32,8.15-.69,15.89.09,22.45,3.86,6.4,3.69,10.76,10,13.17,17.27,3.6,10.81,3.65,22.52,2.77,33.81-1.36,17.28-5.37,34.34-10.13,51-6.69,23.43-15.22,46.32-24.5,68.83-28.2,68.41-63.32,134-99.86,198.25q-8.67,15.26-17.51,30.4C156.9,531.56,162.82,535,165,531.2Z"/><path class="cls-6" d="M35.53,675s66.66-73.14,72.44-68.39S60.9,687.34,60.9,687.34s66.32-64.88,72.09-60.13S79.8,711.45,79.8,711.45Z"/><path class="cls-6" d="M34.54,722.14S-9,692.72,1.71,675.74s72.08-60.12,72.42-56.61-50.69,61.59-50.69,61.59,24.9,1.12,26.94,22.18S34.54,722.14,34.54,722.14Z"/><path class="cls-5" d="M10.93,702.71s9-16.81,12.33-18.91,23-.46,26.27,15.16-.67-16.21-.67-16.21C33,667.71,20.25,673.87,10.93,702.71Z"/><path class="cls-6" d="M33.73,721.48S71,758.6,85.58,744.78s45.15-82.3,41.64-82-50.7,61.59-50.7,61.59-5.89-24.22-26.94-22.18S33.73,721.48,33.73,721.48Z"/><path class="cls-5" d="M57.35,740.91s14.77-12.06,16.18-15.73-4-22.64-19.93-22.86,16-2.47,16-2.47C87.46,712.56,83.85,726.23,57.35,740.91Z"/><circle class="cls-3" cx="23.05" cy="735.28" r="11.22"/><path class="cls-5" d="M17.62,725.47C15,728.55,31,742.08,33.63,739c0,0,1.11-3.16.65-5.17s1.5-9.63,1.5-9.63l-15.16.13A11,11,0,0,0,17.62,725.47Z"/><circle class="cls-3" cx="43.64" cy="710.26" r="28.67"/><path class="cls-3" d="M74.71,617.83c-7.66,9.26,45.32,53.1,53,43.84C113.86,634.56,96.3,619.64,74.71,617.83Z"/><path class="cls-3" d="M108.72,633.33l52.58-96.11,7.49-13.69c2.31-4.22-4.15-8-6.46-3.77l-52.58,96.11-7.49,13.69c-2.31,4.22,4.14,8,6.46,3.77Z"/></g></g></svg>