<svg width="28" height="24" viewBox="0 0 28 24" fill="none" xmlns="http://www.w3.org/2000/svg">
<path d="M12.5413 24C18.2052 24 22.9829 20.2177 24.3814 15.0987H27.7142L22.6146 6.44991L17.515 15.0977H20.443C19.1849 18.1638 16.118 20.3355 12.5416 20.3355C7.84689 20.3355 4.02768 16.5962 4.02768 11.9996C4.02768 7.40346 7.84689 3.66377 12.5416 3.66377C14.9568 3.66377 17.1373 4.65491 18.689 6.24044L20.6119 2.97914C18.4549 1.12577 15.6312 0 12.5424 0C5.78387 0 0.285645 5.38251 0.285645 12C0.284913 18.6175 5.7824 24 12.5413 24Z" fill="white"/>
</svg>
