<svg width="25" height="24" viewBox="0 0 25 24" fill="none" xmlns="http://www.w3.org/2000/svg">
<g clip-path="url(#clip0)">
<path d="M20.5915 11.0272C20.3298 11.0272 20.0725 11.0551 19.8255 11.108C19.4947 7.76606 16.6673 5.146 13.24 5.146C12.8342 5.146 12.5049 5.47534 12.5049 5.88114V17.6435C12.5049 18.0493 12.8342 18.3786 13.24 18.3786H20.5915C22.619 18.3786 24.2672 16.7304 24.2672 14.7029C24.2672 12.6768 22.619 11.0272 20.5915 11.0272Z" fill="#5D5D5D"/>
<path d="M10.2996 6.61633C9.8938 6.61633 9.56445 6.94568 9.56445 7.35148V17.6435C9.56445 18.0493 9.8938 18.3787 10.2996 18.3787C10.7054 18.3787 11.0347 18.0493 11.0347 17.6435V7.35148C11.0347 6.94568 10.7054 6.61633 10.2996 6.61633Z" fill="#5D5D5D"/>
<path d="M7.35893 9.55688C6.95312 9.55688 6.62378 9.88623 6.62378 10.292V17.6435C6.62378 18.0493 6.95312 18.3786 7.35893 18.3786C7.76473 18.3786 8.09407 18.0493 8.09407 17.6435V10.292C8.09407 9.88623 7.76473 9.55688 7.35893 9.55688Z" fill="#5D5D5D"/>
<path d="M4.4185 9.55688C4.0127 9.55688 3.68335 9.88623 3.68335 10.292V17.6435C3.68335 18.0493 4.0127 18.3786 4.4185 18.3786C4.8243 18.3786 5.15364 18.0493 5.15364 17.6435V10.292C5.15364 9.88623 4.8243 9.55688 4.4185 9.55688Z" fill="#5D5D5D"/>
<path d="M1.47782 11.7623C1.07202 11.7623 0.742676 12.0917 0.742676 12.4975V16.9084C0.742676 17.3142 1.07202 17.6435 1.47782 17.6435C1.88362 17.6435 2.21297 17.3142 2.21297 16.9084V12.4975C2.21297 12.0917 1.88362 11.7623 1.47782 11.7623Z" fill="#5D5D5D"/>
</g>
<defs>
<clipPath id="clip0">
<rect x="0.742676" width="23.5247" height="23.5247" fill="white"/>
</clipPath>
</defs>
</svg>
