<svg focusable="false" tabindex="-1" xmlns="http://www.w3.org/2000/svg" width="220" height="53" viewBox="0 0 220 53">
  <g fill="none" fill-rule="nonzero">
    <path class="logo__letters" fill="#FFF"
          d="M177.183 17.647c0-2.507.946-4.684 2.791-6.529 1.845-1.845 4.022-2.744 6.53-2.744 2.601 0 4.778.9 6.623 2.744 1.845 1.845 2.744 3.974 2.744 6.53 0 2.554-.899 4.683-2.744 6.528-1.845 1.846-4.069 2.792-6.624 2.792-2.507 0-4.684-.946-6.529-2.792-1.845-1.845-2.791-4.021-2.791-6.529zm-8.564 0c0 3.17.805 6.15 2.413 8.848 1.562 2.744 3.69 4.873 6.482 6.434 2.744 1.609 5.772 2.413 8.99 2.413 3.69 0 6.812-1.04 9.367-3.123v2.177h8.753V.662h-8.753V3.17c-2.65-2.082-5.772-3.123-9.368-3.123-4.968 0-9.226 1.704-12.632 5.11-3.501 3.454-5.252 7.617-5.252 12.49zm-29.522 8.516v8.233h27.062v-8.374h-15.565l15.565-17.364V.71h-27.062v8.374h15.613l-15.613 17.08zM112.79.663v33.733h8.753V17.363c0-1.182.095-2.27.284-3.17.142-.804.52-1.608 1.088-2.46.52-.804 1.23-1.419 2.224-1.892.946-.426 2.176-.804 3.785-1.041a39.544 39.544 0 0 1 5.63-.378V.047c-3.36 0-5.961.237-7.712.663a14.834 14.834 0 0 0-5.252 2.46V.662h-8.8zm-31.32 16.984c0-2.507.946-4.684 2.791-6.529 1.846-1.845 4.022-2.744 6.53-2.744 2.602 0 4.778.9 6.623 2.744 1.845 1.845 2.744 3.974 2.744 6.53 0 2.554-.899 4.683-2.744 6.528-1.845 1.846-4.069 2.792-6.624 2.792-2.507 0-4.683-.946-6.529-2.792-1.892-1.845-2.791-4.021-2.791-6.529zm-8.563 0c0 3.17.804 6.15 2.412 8.848 1.562 2.744 3.69 4.873 6.482 6.434 2.744 1.609 5.772 2.413 8.99 2.413 3.264 0 6.292-.804 9.083-2.413 2.744-1.561 4.92-3.738 6.53-6.434 1.56-2.744 2.365-5.678 2.365-8.848 0-3.17-.804-6.15-2.366-8.894-1.608-2.697-3.785-4.826-6.529-6.387C97.131.804 94.103.047 90.791.047c-4.967 0-9.225 1.704-12.632 5.11-3.5 3.454-5.251 7.617-5.251 12.49zm-30.99.426v-.804c.095-2.413 1.088-4.495 2.934-6.245 1.797-1.75 3.926-2.65 6.434-2.65 2.555 0 4.731.9 6.53 2.744 1.844 1.845 2.743 3.974 2.743 6.53 0 2.554-.899 4.683-2.744 6.528-1.845 1.846-4.021 2.792-6.529 2.792s-4.684-.9-6.434-2.65c-1.846-1.75-2.84-3.832-2.934-6.245zM33.213.663v51.664h8.753V32.172c2.554 2.082 5.677 3.123 9.367 3.123 3.265 0 6.293-.805 8.99-2.413 2.744-1.562 4.92-3.738 6.529-6.435 1.56-2.744 2.365-5.677 2.365-8.847 0-4.92-1.75-9.037-5.204-12.49C60.512 1.703 56.3 0 51.333 0c-3.69 0-6.813 1.04-9.367 3.123V.615h-8.753v.047zM4.968 23.703l-4.684 6.53c4.21 3.595 8.847 5.109 14.572 5.109 8.421 0 14.146-3.738 14.146-10.74 0-5.772-3.5-9.273-12.869-10.929-5.299-.946-6.387-1.703-6.387-3.406 0-1.23 1.372-2.224 4.873-2.224 2.886 0 5.63.946 8.28 2.839l4.447-6.245C23.798 1.75 19.446.142 14.525.142 6.67.142 1.23 4.21 1.23 10.929c0 6.009 3.785 8.99 11.733 10.267 5.725.899 7.523 1.892 7.523 3.643 0 1.892-2.034 2.65-5.346 2.65-3.643-.095-7.239-1.515-10.172-3.786"/>
    <path class="logo__dot" fill="#83FF00"
          d="M208.834 29.38c0 1.562.52 2.84 1.609 3.928 1.04 1.04 2.366 1.608 3.974 1.608 1.561 0 2.839-.52 3.88-1.608 1.04-1.041 1.561-2.366 1.561-3.927 0-1.562-.52-2.886-1.561-3.927s-2.319-1.562-3.88-1.562-2.886.52-3.974 1.562c-1.088 1.04-1.609 2.365-1.609 3.927"/>
  </g>
</svg>
