<svg width="25" height="25" viewBox="0 0 25 25" fill="none" xmlns="http://www.w3.org/2000/svg">
<g clip-path="url(#clip0)">
<path d="M24.6927 5.27368C23.7905 5.66942 22.8292 5.93173 21.827 6.05909C22.858 5.4435 23.645 4.47614 24.0149 3.31015C23.0536 3.88329 21.9923 4.28812 20.8612 4.51404C19.9484 3.54213 18.6474 2.94019 17.2282 2.94019C14.4748 2.94019 12.258 5.17512 12.258 7.91497C12.258 8.30919 12.2914 8.68825 12.3732 9.04911C8.23846 8.84745 4.57978 6.86573 2.12195 3.8469C1.69286 4.59137 1.44116 5.4435 1.44116 6.36082C1.44116 8.08327 2.32816 9.61012 3.65032 10.4941C2.85126 10.4789 2.06737 10.2469 1.40325 9.88153C1.40325 9.89669 1.40325 9.9164 1.40325 9.93611C1.40325 12.353 3.12722 14.3605 5.38793 14.823C4.9831 14.9336 4.54187 14.9867 4.08397 14.9867C3.76556 14.9867 3.44411 14.9685 3.14238 14.9018C3.78678 16.8714 5.61537 18.3194 7.78966 18.3664C6.09753 19.6901 3.94902 20.4876 1.62311 20.4876C1.21524 20.4876 0.824051 20.4694 0.432861 20.4194C2.63596 21.8401 5.24692 22.6513 8.06258 22.6513C17.2146 22.6513 22.2182 15.0701 22.2182 8.49872C22.2182 8.27886 22.2106 8.06659 22.2 7.85583C23.1871 7.15533 24.0164 6.28046 24.6927 5.27368Z" fill="#5D5D5D"/>
</g>
<defs>
<clipPath id="clip0">
<rect x="0.432861" y="0.665771" width="24.2598" height="24.2598" fill="white"/>
</clipPath>
</defs>
</svg>
