<svg width="25" height="24" viewBox="0 0 25 24" fill="none" xmlns="http://www.w3.org/2000/svg">
<g clip-path="url(#clip0)">
<path d="M24.3156 6.23876C24.0389 5.21063 23.2283 4.4002 22.2004 4.12335C20.3222 3.60938 12.8098 3.60938 12.8098 3.60938C12.8098 3.60938 5.29759 3.60938 3.41948 4.10376C2.41131 4.38043 1.58093 5.21081 1.30426 6.23876C0.810059 8.11668 0.810059 12.0113 0.810059 12.0113C0.810059 12.0113 0.810059 15.9255 1.30426 17.7839C1.58111 18.8118 2.39153 19.6224 3.41967 19.8993C5.31736 20.4133 12.81 20.4133 12.81 20.4133C12.81 20.4133 20.3222 20.4133 22.2004 19.9189C23.2285 19.6422 24.0389 18.8316 24.3158 17.8036C24.81 15.9255 24.81 12.0311 24.81 12.0311C24.81 12.0311 24.8297 8.11668 24.3156 6.23876Z" fill="#5D5D5D"/>
<path d="M10.418 15.6094L16.665 12.0114L10.418 8.41333V15.6094Z" fill="#181818"/>
</g>
<defs>
<clipPath id="clip0">
<rect x="0.810059" width="24" height="24" fill="white"/>
</clipPath>
</defs>
</svg>
